<mxfile host="app.diagrams.net" modified="2023-06-03T02:22:13.471Z" agent="Mozilla/5.0 (X11; Linux x86_64; rv:109.0) Gecko/20100101 Firefox/111.0" etag="0PuCwwQxrnxvfUo5N8Zc" version="21.3.6" type="device">
  <diagram name="Page-1" id="NnesV5St42bMwWYuN8ip">
    <mxGraphModel dx="934" dy="529" grid="1" gridSize="10" guides="1" tooltips="1" connect="1" arrows="1" fold="1" page="0" pageScale="1" pageWidth="850" pageHeight="1100" math="0" shadow="0">
      <root>
        <mxCell id="0" />
        <mxCell id="1" parent="0" />
        <mxCell id="wVc57-GBdDfzJeNBVChu-4" value="" style="rounded=0;whiteSpace=wrap;html=1;fillColor=#d5e8d4;strokeColor=#82b366;" parent="1" vertex="1">
          <mxGeometry x="162" y="660" width="23" height="40" as="geometry" />
        </mxCell>
        <mxCell id="wVc57-GBdDfzJeNBVChu-5" value="&lt;font style=&quot;font-size: 36px;&quot; face=&quot;Verdana&quot; color=&quot;#ff0080&quot;&gt;0101&lt;/font&gt;" style="text;html=1;strokeColor=#CC6600;fillColor=none;align=left;verticalAlign=middle;whiteSpace=wrap;rounded=0;strokeWidth=2;" parent="1" vertex="1">
          <mxGeometry x="160" y="650" width="100" height="60" as="geometry" />
        </mxCell>
        <mxCell id="wVc57-GBdDfzJeNBVChu-6" value="" style="rounded=1;whiteSpace=wrap;html=1;fillColor=#e1d5e7;strokeColor=#9673a6;glass=0;shadow=0;" parent="1" vertex="1">
          <mxGeometry x="495" y="650" width="110" height="60" as="geometry" />
        </mxCell>
        <mxCell id="wVc57-GBdDfzJeNBVChu-7" value="&lt;font style=&quot;font-size: 36px;&quot; face=&quot;Verdana&quot;&gt;5 * 2&lt;/font&gt;" style="text;html=1;strokeColor=none;fillColor=none;align=center;verticalAlign=middle;whiteSpace=wrap;rounded=0;fontFamily=Helvetica;" parent="1" vertex="1">
          <mxGeometry x="495" y="655" width="112.5" height="45" as="geometry" />
        </mxCell>
        <mxCell id="wVc57-GBdDfzJeNBVChu-8" value="&lt;font style=&quot;font-size: 24px;&quot; face=&quot;Verdana&quot; color=&quot;#009900&quot;&gt;nucleotide/bit&lt;br&gt;&lt;/font&gt;" style="text;html=1;strokeColor=none;fillColor=none;align=center;verticalAlign=middle;whiteSpace=wrap;rounded=0;" parent="1" vertex="1">
          <mxGeometry x="65" y="560" width="215" height="30" as="geometry" />
        </mxCell>
        <mxCell id="wVc57-GBdDfzJeNBVChu-9" value="&lt;font style=&quot;font-size: 24px;&quot; face=&quot;Verdana&quot; color=&quot;#cc6600&quot;&gt;gene&lt;/font&gt;" style="text;html=1;strokeColor=none;fillColor=none;align=center;verticalAlign=middle;whiteSpace=wrap;rounded=0;" parent="1" vertex="1">
          <mxGeometry x="182.5" y="600" width="75" height="20" as="geometry" />
        </mxCell>
        <mxCell id="wVc57-GBdDfzJeNBVChu-10" value="" style="endArrow=classic;html=1;rounded=0;exitX=0.5;exitY=1;exitDx=0;exitDy=0;strokeColor=#009900;entryX=0.5;entryY=0;entryDx=0;entryDy=0;" parent="1" source="wVc57-GBdDfzJeNBVChu-8" target="wVc57-GBdDfzJeNBVChu-4" edge="1">
          <mxGeometry width="50" height="50" relative="1" as="geometry">
            <mxPoint x="230" y="890" as="sourcePoint" />
            <mxPoint x="185" y="640" as="targetPoint" />
          </mxGeometry>
        </mxCell>
        <mxCell id="wVc57-GBdDfzJeNBVChu-11" value="" style="endArrow=classic;html=1;rounded=0;strokeColor=#CC6600;exitX=0.5;exitY=1;exitDx=0;exitDy=0;entryX=0.5;entryY=0;entryDx=0;entryDy=0;" parent="1" source="wVc57-GBdDfzJeNBVChu-9" target="wVc57-GBdDfzJeNBVChu-5" edge="1">
          <mxGeometry width="50" height="50" relative="1" as="geometry">
            <mxPoint x="300" y="870" as="sourcePoint" />
            <mxPoint x="359" y="630" as="targetPoint" />
          </mxGeometry>
        </mxCell>
        <mxCell id="wVc57-GBdDfzJeNBVChu-12" value="&lt;font style=&quot;font-size: 24px;&quot; face=&quot;Verdana&quot; color=&quot;#6600cc&quot;&gt;phenotype&lt;/font&gt;" style="text;html=1;strokeColor=none;fillColor=none;align=center;verticalAlign=middle;whiteSpace=wrap;rounded=0;" parent="1" vertex="1">
          <mxGeometry x="442.5" y="560" width="215" height="30" as="geometry" />
        </mxCell>
        <mxCell id="wVc57-GBdDfzJeNBVChu-13" value="" style="endArrow=classic;html=1;rounded=0;strokeColor=#6600CC;entryX=0.5;entryY=0;entryDx=0;entryDy=0;exitX=0.5;exitY=1;exitDx=0;exitDy=0;" parent="1" source="wVc57-GBdDfzJeNBVChu-12" target="wVc57-GBdDfzJeNBVChu-6" edge="1">
          <mxGeometry width="50" height="50" relative="1" as="geometry">
            <mxPoint x="515" y="610" as="sourcePoint" />
            <mxPoint x="246" y="630" as="targetPoint" />
          </mxGeometry>
        </mxCell>
        <mxCell id="wVc57-GBdDfzJeNBVChu-14" value="" style="shape=image;html=1;verticalAlign=top;verticalLabelPosition=bottom;labelBackgroundColor=#ffffff;imageAspect=0;aspect=fixed;image=https://cdn2.iconfinder.com/data/icons/css-vol-2/24/math-equal-128.png" parent="1" vertex="1">
          <mxGeometry x="430" y="658" width="44" height="44" as="geometry" />
        </mxCell>
        <mxCell id="wVc57-GBdDfzJeNBVChu-15" value="&lt;font style=&quot;font-size: 36px;&quot; face=&quot;Verdana&quot;&gt;10&lt;/font&gt;" style="text;html=1;strokeColor=default;fillColor=none;align=left;verticalAlign=middle;whiteSpace=wrap;rounded=0;" parent="1" vertex="1">
          <mxGeometry x="260" y="650" width="50" height="60" as="geometry" />
        </mxCell>
        <mxCell id="wVc57-GBdDfzJeNBVChu-16" value="&lt;font style=&quot;font-size: 36px;&quot; face=&quot;Verdana&quot;&gt;0010&lt;/font&gt;" style="text;html=1;strokeColor=default;fillColor=none;align=left;verticalAlign=middle;whiteSpace=wrap;rounded=0;" parent="1" vertex="1">
          <mxGeometry x="310" y="650" width="100" height="60" as="geometry" />
        </mxCell>
        <mxCell id="xAQ6QKnK_O12tvMEdtY9-1" value="&lt;font style=&quot;font-size: 24px;&quot; face=&quot;Verdana&quot; color=&quot;#ff0080&quot;&gt;allele&lt;/font&gt;" style="text;html=1;strokeColor=none;fillColor=none;align=center;verticalAlign=middle;whiteSpace=wrap;rounded=0;" parent="1" vertex="1">
          <mxGeometry x="182.5" y="755" width="75" height="20" as="geometry" />
        </mxCell>
        <mxCell id="xAQ6QKnK_O12tvMEdtY9-2" value="" style="endArrow=classic;html=1;rounded=0;strokeColor=#FF0080;exitX=0.5;exitY=0;exitDx=0;exitDy=0;" parent="1" edge="1">
          <mxGeometry width="50" height="50" relative="1" as="geometry">
            <mxPoint x="220" y="755" as="sourcePoint" />
            <mxPoint x="220" y="695" as="targetPoint" />
            <Array as="points" />
          </mxGeometry>
        </mxCell>
        <mxCell id="fIuLug9xa2TsAXn6VQND-1" value="" style="rounded=1;whiteSpace=wrap;html=1;fillColor=none;strokeColor=#CCCCCC;glass=0;shadow=0;strokeWidth=1;" parent="1" vertex="1">
          <mxGeometry x="60" y="550" width="364" height="245" as="geometry" />
        </mxCell>
        <mxCell id="fIuLug9xa2TsAXn6VQND-2" value="&lt;font style=&quot;font-size: 24px;&quot; face=&quot;Verdana&quot; color=&quot;#b3b3b3&quot;&gt;chromosome&lt;/font&gt;" style="text;html=1;strokeColor=none;fillColor=none;align=center;verticalAlign=middle;whiteSpace=wrap;rounded=0;" parent="1" vertex="1">
          <mxGeometry x="134.5" y="480" width="215" height="30" as="geometry" />
        </mxCell>
        <mxCell id="fIuLug9xa2TsAXn6VQND-37" value="" style="endArrow=classic;html=1;rounded=0;strokeColor=#B3B3B3;entryX=0.5;entryY=0;entryDx=0;entryDy=0;exitX=0.5;exitY=1;exitDx=0;exitDy=0;" parent="1" source="fIuLug9xa2TsAXn6VQND-2" target="fIuLug9xa2TsAXn6VQND-1" edge="1">
          <mxGeometry width="50" height="50" relative="1" as="geometry">
            <mxPoint x="668" y="600" as="sourcePoint" />
            <mxPoint x="668" y="660" as="targetPoint" />
          </mxGeometry>
        </mxCell>
      </root>
    </mxGraphModel>
  </diagram>
</mxfile>
